<svg width="16" height="16" viewBox="0 0 16 16" fill="none" xmlns="http://www.w3.org/2000/svg">
<path d="M8.00033 12.3336C10.3936 12.3336 12.3337 10.3935 12.3337 8.00026C12.3337 5.60703 10.3936 3.66693 8.00033 3.66693C5.60709 3.66693 3.66699 5.60703 3.66699 8.00026C3.66699 10.3935 5.60709 12.3336 8.00033 12.3336Z" fill="white"/>
<path d="M12.7597 12.7598L12.673 12.6731M12.673 3.32646L12.7597 3.2398L12.673 3.32646ZM3.23967 12.7598L3.32634 12.6731L3.23967 12.7598ZM7.99967 1.38646V1.33313V1.38646ZM7.99967 14.6665V14.6131V14.6665ZM1.38634 7.9998H1.33301H1.38634ZM14.6663 7.9998H14.613H14.6663ZM3.32634 3.32646L3.23967 3.2398L3.32634 3.32646Z" stroke="white" stroke-width="1.87" stroke-linecap="round" stroke-linejoin="round"/>
</svg>
